<?xml version="1.0" encoding="utf-8"?>
<!-- Generator: Adobe Illustrator 24.1.0, SVG Export Plug-In . SVG Version: 6.00 Build 0)  -->
<svg version="1.1" xmlns="http://www.w3.org/2000/svg" xmlns:xlink="http://www.w3.org/1999/xlink" x="0px" y="0px"
	 viewBox="0 0 492 409.3" style="enable-background:new 0 0 492 409.3;" xml:space="preserve">
<style type="text/css">
	.st0{display:none;}
	.st1{display:inline;}
	.st2{fill:#FFFFFF;}
</style>
<g id="Layer_1" class="st0">
	<g class="st1">
		<g>
			<path class="st2" d="M484.1,185.5L306.5,7.9c-5.1-5.1-11.8-7.9-19-7.9c-7.2,0-14,2.8-19,7.9L252.2,24c-5.1,5.1-7.9,11.8-7.9,19
				c0,7.2,2.8,14.2,7.9,19.3l103.7,103.9H26.6C11.7,166.2,0,177.8,0,192.7v22.8c0,14.9,11.7,27.6,26.6,27.6h330.5L252.2,347.6
				c-5.1,5.1-7.9,11.7-7.9,18.9c0,7.2,2.8,13.9,7.9,18.9l16.1,16.1c5.1,5.1,11.8,7.8,19,7.8c7.2,0,14-2.8,19-7.9l177.7-177.7
				c5.1-5.1,7.9-11.9,7.9-19.1C492,197.4,489.2,190.6,484.1,185.5z"/>
		</g>
	</g>
</g>
<g id="Layer_2">
	<path class="st2" d="M426,108H66c-6.6,0-12-5.4-12-12V52c0-6.6,5.4-12,12-12h360c6.6,0,12,5.4,12,12v44
		C438,102.6,432.6,108,426,108z"/>
	<path class="st2" d="M426,238.7H66c-6.6,0-12-5.4-12-12v-44c0-6.6,5.4-12,12-12h360c6.6,0,12,5.4,12,12v44
		C438,233.3,432.6,238.7,426,238.7z"/>
	<path class="st2" d="M426,369.3H66c-6.6,0-12-5.4-12-12v-44c0-6.6,5.4-12,12-12h360c6.6,0,12,5.4,12,12v44
		C438,363.9,432.6,369.3,426,369.3z"/>
</g>
</svg>
